<?xml version="1.0" encoding="UTF-8"?>
<svg xmlns="http://www.w3.org/2000/svg" xmlns:xlink="http://www.w3.org/1999/xlink" width="26pt" height="26pt" viewBox="0 0 26 26" version="1.1">
<g id="surface1">
<path style=" stroke:none;fill-rule:nonzero;fill:rgb(100%,10.196078%,29.411765%);fill-opacity:1;" d="M 21.171875 8.671875 C 21.171875 10.625 19.796875 13.847656 17.089844 18.242188 C 15.117188 21.464844 13.105469 24.179688 13.085938 24.210938 L 12.5 25 L 11.914062 24.210938 C 11.894531 24.179688 9.882812 21.464844 7.910156 18.242188 C 5.203125 13.847656 3.828125 10.625 3.828125 8.671875 C 3.828125 3.886719 7.726562 0 12.5 0 C 17.273438 0 21.171875 3.886719 21.171875 8.671875 Z M 21.171875 8.671875 "/>
<path style=" stroke:none;fill-rule:nonzero;fill:rgb(100%,85.882353%,66.27451%);fill-opacity:1;" d="M 17.460938 8.535156 C 17.460938 11.269531 15.234375 13.496094 12.5 13.496094 C 9.765625 13.496094 7.539062 11.269531 7.539062 8.535156 C 7.539062 5.800781 9.765625 3.574219 12.5 3.574219 C 15.234375 3.574219 17.460938 5.800781 17.460938 8.535156 Z M 17.460938 8.535156 "/>
<path style=" stroke:none;fill-rule:nonzero;fill:rgb(83.529412%,14.117647%,24.313725%);fill-opacity:1;" d="M 21.171875 8.671875 C 21.171875 10.625 19.796875 13.847656 17.089844 18.242188 C 15.117188 21.464844 13.105469 24.179688 13.085938 24.210938 L 12.5 25 L 12.5 0 C 17.273438 0 21.171875 3.886719 21.171875 8.671875 Z M 21.171875 8.671875 "/>
<path style=" stroke:none;fill-rule:nonzero;fill:rgb(100%,76.862745%,45.098039%);fill-opacity:1;" d="M 17.460938 8.535156 C 17.460938 11.269531 15.234375 13.496094 12.5 13.496094 L 12.5 3.574219 C 15.234375 3.574219 17.460938 5.800781 17.460938 8.535156 Z M 17.460938 8.535156 "/>
</g>
</svg>
